:FULLY-SPECIFIED
:FORCE-ALL-JOINTS-BE-3DOF
:DEGREES
951
root 1.08649 15.2724 32.7445 6.90849 -3.09816 4.34873
lfemur 7.13973 0.984058 4.74783
ltibia -0.0720236 0 0
lfoot -28.5588 -13.5326 -0.00219635
ltoes -32.4419 0 0
rfemur -31.9802 -16.3774 -6.55963
rtibia 49.5939 -0 0
rfoot -21.4083 4.50435 0.00742796
rtoes -42.1994 0 0
lowerback -2.41355 -0.815092 1.2426
upperback -1.19979 -1.10566 -6.62947
thorax -0.041405 -0.587438 -7.64334
lowerneck -6.26527 1.10157 5.26463
upperneck 0.573993 0.996484 3.06974
head 1.23961 0.573248 0.100338
lclavicle -2.30485e-15 -1.50682e-14 1.43412e-31
lhumerus -59.1807 -43.4997 112.522
lradius 55.3961 -0 0
lwrist 26.3511 0 0
lhand 39.0318 24.2886 0.00186737
lfingers 7.12502 -0 0
lthumb 61.585 36.2677 -0.00288935
rclavicle -2.30485e-15 -1.50682e-14 1.43412e-31
rhumerus 3.31814 -29.9328 1.44027
rradius 28.7176 -0 0
rwrist -10.8926 0 0
rhand -34.9937 -50.8549 -0.0595243
rfingers 7.12502 -0 0
rthumb -8.13762 -80.6696 -0.062299
952
root 1.07105 15.2629 32.7377 6.87274 -3.24742 4.24242
lfemur 7.25041 1.11062 4.89794
ltibia -0.0114307 0 0
lfoot -28.709 -13.2365 -0.000960785
ltoes -32.7038 0 0
rfemur -32.1767 -16.3807 -6.33995
rtibia 49.8155 -0 0
rfoot -21.5743 4.54133 0.0023692
rtoes -42.1066 0 0
lowerback -2.42844 -0.90691 1.30947
upperback -1.13486 -1.22702 -6.55617
thorax 0.0177592 -0.646331 -7.60605
lowerneck -6.18319 1.25012 5.45135
upperneck 0.488804 1.19031 3.03973
head 1.20064 0.666802 0.065575
lclavicle -5.44189e-16 -1.32183e-14 3.62766e-31
lhumerus -59.1674 -43.4511 112.554
lradius 55.3444 -0 0
lwrist 26.506 0 0
lhand 38.7804 24.1768 0.000973682
lfingers 7.12502 -0 0
lthumb 61.3753 36.4164 -0.00143979
rclavicle -5.44189e-16 -1.32183e-14 3.62766e-31
rhumerus 3.33738 -27.6294 2.07709
rradius 28.9482 -0 0
rwrist -9.97865 0 0
rhand -33.3989 -50.5595 -0.01591
rfingers 7.12502 -0 0
rthumb -6.5988 -80.428 -0.0177146
953
root 1.05753 15.2529 32.7303 6.8266 -3.42135 364.17
lfemur 7.39583 1.25075 5.01695
ltibia 0 0 0
lfoot -28.8242 -13.0103 0
ltoes -32.9027 0 0
rfemur -32.3714 -16.4053 -6.16964
rtibia 50.0221 0 0
rfoot -21.7576 4.64439 0
rtoes -42.0196 0 0
lowerback -2.40532 -0.962165 1.33844
upperback -1.08989 -1.30032 -6.49494
thorax 0.0421056 -0.681987 -7.55798
lowerneck -6.1171 1.35257 5.59306
upperneck 0.426627 1.3236 3.03492
head 1.17095 0.731268 0.0443343
lclavicle -2.98177e-16 -1.43125e-14 0
lhumerus -59.1613 -43.4609 112.641
lradius 55.3053 0 0
lwrist 26.5206 0 0
lhand 38.6117 24.0614 0
lfingers 7.12502 0 0
lthumb 61.2347 36.4768 0
rclavicle -2.98177e-16 -1.43125e-14 0
rhumerus 3.46276 -26.2543 2.48423
rradius 29.0263 0 0
rwrist -9.50186 0 0
rhand -32.44 -50.3388 0
rfingers 7.12502 0 0
rthumb -5.6736 -800.243 0
954
root 1.0461 15.2423 32.7219 6.75968 -3.64194 4.13463
lfemur 7.58738 1.41993 5.09717
ltibia -0.0201291 0 0
lfoot -28.9153 -12.8518 0.000360835
ltoes -33.0359 0 0
rfemur -32.5708 -16.4274 -6.05311
rtibia 50.2192 -0 0
rfoot -21.9541 4.80909 -0.00031397
rtoes -41.9434 0 0
lowerback -2.33663 -0.981259 1.31524
upperback -1.06557 -1.32597 -6.44533
thorax 0.0269339 -0.694668 -7.49028
lowerneck -6.06396 1.40824 5.68601
upperneck 0.396645 1.39523 3.06566
head 1.15285 0.766451 0.0403908
lclavicle -2.33761e-15 -2.05253e-14 -1.04007e-30
lhumerus -59.1701 -43.5523 112.801
lradius 55.2823 -0 0
lwrist 26.3513 0 0
lhand 38.5493 23.91 -0.00079323
lfingers 7.12502 -0 0
lthumb 61.1831 36.3928 0.000854026
rclavicle -2.33761e-15 -2.05253e-14 -1.04007e-30
rhumerus 3.69479 -25.7069 2.62656
rradius 28.9859 -0 0
rwrist -9.55483 0 0
rhand -32.0886 -50.1385 -0.00188405
rfingers 7.12502 -0 0
rthumb -5.33463 -80.0592 -0.000557444
955
root 1.03676 15.2312 32.7125 6.66809 -3.91503 4.12608
lfemur 7.81341 1.62372 5.14118
ltibia -0.0279571 0 0
lfoot -29.0101 -12.7326 0.000498353
ltoes -33.1236 0 0
rfemur -32.7786 -16.4108 -5.97819
rtibia 50.415 -0 0
rfoot -22.1435 4.99761 -0.000780421
rtoes -41.8809 0 0
lowerback -2.2345 -0.978725 1.2425
upperback -1.05476 -1.32306 -6.40299
thorax -0.0161349 -0.693582 -7.40038
lowerneck -6.01718 1.43425 5.74255
upperneck 0.397388 1.42762 3.12966
head 1.14502 0.783406 0.0516768
lclavicle -6.40864e-15 -3.18519e-14 -2.03391e-30
lhumerus -59.1933 -43.7151 113.024
lradius 55.2717 -0 0
lwrist 26.027 0 0
lhand 38.5762 23.7077 -0.0012721
lfingers 7.12502 -0 0
lthumb 61.2061 36.1668 0.00106377
rclavicle -6.40864e-15 -3.18519e-14 -2.03391e-30
rhumerus 3.99699 -25.4667 2.54916
rradius 28.9374 -0 0
rwrist -10.0309 0 0
rhand -32.0264 -49.8609 -0.00495201
rfingers 7.12502 -0 0
rthumb -5.27461 -79.786 -0.00303121
956
root 1.02933 15.2199 32.7022 6.56183 -4.21801 4.13719
lfemur 8.05658 1.8469 5.15892
ltibia -0.0268389 0 0
lfoot -29.1071 -12.6448 0.000454759
ltoes -33.1764 0 0
rfemur -32.989 -16.369 -5.93538
rtibia 50.6062 -0 0
rfoot -22.3229 5.20075 -0.00116326
rtoes -41.8272 0 0
lowerback -2.11194 -0.959467 1.13723
upperback -1.05389 -1.29823 -6.36667
thorax -0.0774176 -0.681807 -7.29725
lowerneck -5.97807 1.43796 5.77137
upperneck 0.418045 1.43047 3.2146
head 1.14441 0.786514 0.0732128
lclavicle -1.15489e-14 -4.58445e-14 -2.107e-30
lhumerus -59.223 -43.9193 113.285
lradius 55.2681 -0 0
lwrist 25.6076 0 0
lhand 38.6592 23.4853 -0.00120311
lfingers 7.12502 -0 0
lthumb 61.2761 35.8627 0.00109805
rclavicle -1.15489e-14 -4.58445e-14 -2.107e-30
rhumerus 4.33447 -25.4512 2.31786
rradius 28.884 -0 0
rwrist -10.7858 0 0
rhand -32.1659 -49.5315 -0.00743057
rfingers 7.12502 -0 0
rthumb -5.4093 -79.4524 -0.00553835
957
root 1.02363 15.2087 32.6917 6.45096 -4.52826 4.16064
lfemur 8.2996 2.07419 5.16015
ltibia -0.0201291 0 0
lfoot -29.2044 -12.5802 0.000289409
ltoes -33.2048 0 0
rfemur -33.1961 -16.3154 -5.91506
rtibia 50.7895 -0 0
rfoot -22.4891 5.4093 -0.00131318
rtoes -41.778 0 0
lowerback -1.98195 -0.92846 1.01646
upperback -1.05943 -1.25814 -6.33513
thorax -0.147236 -0.662456 -7.18983
lowerneck -5.94784 1.42669 5.78117
upperneck 0.44779 1.41346 3.30813
head 1.14798 0.780154 0.100012
lclavicle -1.67962e-14 -6.0055e-14 -1.01325e-30
lhumerus -59.2508 -44.1353 113.559
lradius 55.2662 -0 0
lwrist 25.1528 0 0
lhand 38.7655 23.2736 -0.000579578
lfingers 7.12502 -0 0
lthumb 61.3653 35.5447 0.00128833
rclavicle -1.67962e-14 -6.0055e-14 -1.01325e-30
rhumerus 4.67414 -25.5781 1.99798
rradius 28.8285 -0 0
rwrist -11.6755 0 0
rhand -32.4199 -49.1761 -0.00792079
rfingers 7.12502 -0 0
rthumb -5.65443 -79.0877 -0.0064687
958
root 1.01949 15.1979 32.6814 6.34562 -4.82323 4.18893
lfemur 8.52521 2.29026 5.15432
ltibia -0.0111829 0 0
lfoot -29.3005 -12.5308 8.37183e-05
ltoes -33.2192 0 0
rfemur -33.3942 -16.2636 -5.90748
rtibia 50.9618 -0 0
rfoot -22.6394 5.61408 -0.00116093
rtoes -41.7284 0 0
lowerback -1.85754 -0.890794 0.897192
upperback -1.06783 -1.20946 -6.30713
thorax -0.215925 -0.638695 -7.08707
lowerneck -5.92773 1.40774 5.78069
upperneck 0.475817 1.38632 3.39791
head 1.15266 0.768703 0.127087
lclavicle -2.1188e-14 -7.20354e-14 6.18247e-31
lhumerus -59.2674 -44.3332 113.819
lradius 55.2605 -0 0
lwrist 24.7226 0 0
lhand 38.8619 23.1033 0.000258177
lfingers 7.12502 -0 0
lthumb 61.446 35.2767 0.00153282
rclavicle -2.1188e-14 -7.20354e-14 6.18247e-31
rhumerus 4.98229 -25.7664 1.65595
rradius 28.774 -0 0
rwrist -12.5558 0 0
rhand -32.701 -48.8202 -0.00604782
rfingers 7.12502 -0 0
rthumb -5.92571 -78.7209 -0.0052092
959
root 1.01674 15.1878 32.6715 6.2561 -5.08036 4.21433
lfemur 8.71624 2.47969 5.15067
ltibia -0.00335486 0 0
lfoot -29.3935 -12.4885 -5.63211e-05
ltoes -33.2304 0 0
rfemur -33.5776 -16.2269 -5.90279
rtibia 51.1198 -0 0
rfoot -22.7706 5.80587 -0.000705945
rtoes -41.6739 0 0
lowerback -1.75165 -0.851684 0.796376
upperback -1.07557 -1.15886 -6.28145
thorax -0.27384 -0.613744 -6.99791
lowerneck -5.91895 1.3884 5.77867
upperneck 0.491362 1.35884 3.47159
head 1.15541 0.756546 0.149449
lclavicle -2.3762e-14 -7.93377e-14 1.44765e-30
lhumerus -59.2631 -44.4834 114.04
lradius 55.2457 -0 0
lwrist 24.3768 0 0
lhand 38.9155 23.0052 0.000679936
lfingers 7.12502 -0 0
lthumb 61.4907 35.1227 0.00130976
rclavicle -2.3762e-14 -7.93377e-14 1.44765e-30
rhumerus 5.22339 -25.936 1.36006
rradius 28.7236 -0 0
rwrist -13.2826 0 0
rhand -32.9219 -48.4894 -0.00272039
rfingers 7.12502 -0 0
rthumb -6.13888 -78.3813 -0.00243972
960
root 1.01518 15.1785 32.6627 6.19276 -5.27715 364.229
lfemur 8.85555 2.627 5.15825
ltibia 1.90833e-14 0 0
lfoot -29.4818 -12.4454 0
ltoes -33.2488 0 0
rfemur -33.7405 -16.2185 -5.89106
rtibia 51.2603 0 0
rfoot -22.8798 5.97548 0
rtoes -41.6099 0 0
lowerback -1.67719 -0.816442 0.730932
upperback -1.07912 -1.11302 -6.25684
thorax -0.311356 -0.590867 -6.93126
lowerneck -5.92272 1.37597 5.78384
upperneck 0.4837 1.34082 3.51688
head 1.15318 0.748068 0.162113
lclavicle -2.3556e-14 -7.95139e-14 0
lhumerus -59.2274 -44.5562 114.195
lradius 55.2163 0 0
lwrist 24.1752 0 0
lhand 38.8932 23.0101 0
lfingers 7.12502 0 0
lthumb 61.4715 35.1468 0
rclavicle -2.3556e-14 -7.95139e-14 0
rhumerus 5.36016 -26.0076 1.18013
rradius 28.6801 0 0
rwrist -13.7117 0 0
rhand -32.9953 -48.2093 0
rfingers 7.12502 0 0
rthumb -6.20966 -798.098 0
